<svg xmlns="http://www.w3.org/2000/svg" width="800" height="450">
  <defs>
    <linearGradient id="bg" x1="0" x2="1" y1="0" y2="1">
      <stop offset="0" stop-color="#5B67F2"/>
      <stop offset="1" stop-color="#12CBC4"/>
    </linearGradient>
    <filter id="shadow" x="-20%" y="-20%" width="140%" height="140%">
      <feOffset dy="6" dx="0"/>
      <feGaussianBlur stdDeviation="12" result="blur"/>
      <feColorMatrix in="blur" type="matrix" values="0 0 0 0 0  0 0 0 0 0  0 0 0 0 0  0 0 0 0.25 0"/>
      <feBlend in2="SourceGraphic" mode="normal"/>
    </filter>
    <linearGradient id="btnBlue" x1="0" x2="1">
      <stop offset="0" stop-color="#4A6CF7"/>
      <stop offset="1" stop-color="#2D9CDB"/>
    </linearGradient>
    <linearGradient id="btnPurple" x1="0" x2="1">
      <stop offset="0" stop-color="#8B5CF6"/>
      <stop offset="1" stop-color="#6D28D9"/>
    </linearGradient>
    <linearGradient id="btnGreen" x1="0" x2="1">
      <stop offset="0" stop-color="#10B981"/>
      <stop offset="1" stop-color="#059669"/>
    </linearGradient>
  </defs>
  <rect width="800" height="450" fill="url(#bg)"/>
  <g filter="url(#shadow)">
    <rect x="50" y="90" width="700" height="280" rx="18" fill="#FFFFFF" opacity="0.92"/>
  </g>
  <text x="70" y="130" fill="#1F2937" font-family="Inter, Segoe UI" font-size="30" font-weight="700">📊 Encuesta</text>
  <text x="70" y="165" fill="#4B5563" font-family="Inter, Segoe UI" font-size="20">¿Qué juego?</text>
  <g>
    <rect x="70" y="190" width="200" height="44" rx="10" fill="url(#btnBlue)"/>
    <circle cx="85" cy="212" r="10" fill="#fff"/>
    <path d="M81 212 l4 4 l8 -8" stroke="#4A6CF7" stroke-width="3" fill="none"/>
    <text x="105" y="216" fill="#fff" font-family="Inter, Segoe UI" font-size="18">LoL</text>
  </g>
  <g>
    <rect x="290" y="190" width="200" height="44" rx="10" fill="url(#btnPurple)"/>
    <circle cx="305" cy="212" r="10" fill="#fff"/>
    <path d="M301 212 l4 4 l8 -8" stroke="#8B5CF6" stroke-width="3" fill="none"/>
    <text x="325" y="216" fill="#fff" font-family="Inter, Segoe UI" font-size="18">Valorant</text>
  </g>
  <g>
    <rect x="510" y="190" width="200" height="44" rx="10" fill="url(#btnGreen)"/>
    <circle cx="525" cy="212" r="10" fill="#fff"/>
    <path d="M521 212 l4 4 l8 -8" stroke="#10B981" stroke-width="3" fill="none"/>
    <text x="545" y="216" fill="#fff" font-family="Inter, Segoe UI" font-size="18">CS2</text>
  </g>
  <g>
    <rect x="70" y="250" width="180" height="42" rx="10" fill="#EF4444"/>
    <text x="90" y="278" fill="#fff" font-family="Inter, Segoe UI" font-size="16">Cerrar encuesta</text>
  </g>
</svg>
