<svg xmlns="http://www.w3.org/2000/svg" width="800" height="450">
  <defs>
    <linearGradient id="bg" x1="0" x2="1" y1="0" y2="1">
      <stop offset="0" stop-color="#0F172A"/>
      <stop offset="1" stop-color="#0B1F2E"/>
    </linearGradient>
    <filter id="shadow" x="-20%" y="-20%" width="140%" height="140%">
      <feOffset dy="8" dx="0"/>
      <feGaussianBlur stdDeviation="14" result="blur"/>
      <feColorMatrix in="blur" type="matrix" values="0 0 0 0 0  0 0 0 0 0  0 0 0 0 0  0 0 0 0.35 0"/>
      <feBlend in2="SourceGraphic" mode="normal"/>
    </filter>
  </defs>
  <rect width="800" height="450" fill="url(#bg)"/>
  <g filter="url(#shadow)">
    <rect x="50" y="90" width="700" height="280" rx="18" fill="#0B1220" stroke="#1F2937"/>
  </g>
  <text x="70" y="130" fill="#E5E7EB" font-family="Inter, Segoe UI" font-size="30" font-weight="700">📊 Encuesta</text>
  <text x="70" y="165" fill="#94A3B8" font-family="Inter, Segoe UI" font-size="20">¿Qué juego?</text>
  <g>
    <rect x="70" y="190" width="200" height="44" rx="10" fill="#2563EB"/>
    <circle cx="85" cy="212" r="10" fill="#fff"/>
    <path d="M81 212 l4 4 l8 -8" stroke="#2563EB" stroke-width="3" fill="none"/>
    <text x="105" y="216" fill="#F8FAFC" font-family="Inter, Segoe UI" font-size="18">LoL</text>
  </g>
  <g>
    <rect x="290" y="190" width="200" height="44" rx="10" fill="#7C3AED"/>
    <circle cx="305" cy="212" r="10" fill="#fff"/>
    <path d="M301 212 l4 4 l8 -8" stroke="#7C3AED" stroke-width="3" fill="none"/>
    <text x="325" y="216" fill="#F8FAFC" font-family="Inter, Segoe UI" font-size="18">Valorant</text>
  </g>
  <g>
    <rect x="510" y="190" width="200" height="44" rx="10" fill="#14B8A6"/>
    <circle cx="525" cy="212" r="10" fill="#fff"/>
    <path d="M521 212 l4 4 l8 -8" stroke="#14B8A6" stroke-width="3" fill="none"/>
    <text x="545" y="216" fill="#0F172A" font-family="Inter, Segoe UI" font-size="18">CS2</text>
  </g>
  <g>
    <rect x="70" y="250" width="180" height="42" rx="10" fill="#DC2626"/>
    <text x="90" y="278" fill="#F8FAFC" font-family="Inter, Segoe UI" font-size="16">Cerrar encuesta</text>
  </g>
</svg>
