<svg xmlns="http://www.w3.org/2000/svg" width="800" height="450">
  <defs>
    <linearGradient id="bg" x1="0" x2="1" y1="0" y2="1">
      <stop offset="0" stop-color="#DBEAFE"/>
      <stop offset="1" stop-color="#D1FAE5"/>
    </linearGradient>
    <filter id="shadow" x="-20%" y="-20%" width="140%" height="140%">
      <feOffset dy="6" dx="0"/>
      <feGaussianBlur stdDeviation="12" result="blur"/>
      <feColorMatrix in="blur" type="matrix" values="0 0 0 0 0  0 0 0 0 0  0 0 0 0 0  0 0 0 0.25 0"/>
      <feBlend in2="SourceGraphic" mode="normal"/>
    </filter>
  </defs>
  <rect width="800" height="450" fill="url(#bg)"/>
  <g filter="url(#shadow)">
    <rect x="50" y="90" width="700" height="280" rx="18" fill="#FFFFFF"/>
  </g>
  <text x="70" y="130" fill="#B91C1C" font-family="Inter, Segoe UI" font-size="30" font-weight="700">🛡️ Moderación</text>
  <g transform="translate(720,120)">
    <path d="M10 0 L0 10" stroke="#0EA5E9" stroke-width="4" fill="none" stroke-linecap="round"/>
    <path d="M10 0 L20 10" stroke="#0EA5E9" stroke-width="4" fill="none" stroke-linecap="round"/>
    <path d="M10 0 L10 28" stroke="#0EA5E9" stroke-width="4" fill="none" stroke-linecap="round"/>
    <path d="M0 20 L0 34" stroke="#0EA5E9" stroke-width="4" fill="none" stroke-linecap="round"/>
    <path d="M20 20 L20 34" stroke="#0EA5E9" stroke-width="4" fill="none" stroke-linecap="round"/>
  </g>
  <path d="M720 120 l40 20 v30 c0 40 -20 70 -40 90 c-20 -20 -40 -50 -40 -90 v-30 z" fill="#EF4444" opacity="0.85"/>
  <g>
    <rect x="70" y="170" width="120" height="40" rx="10" fill="#EF4444"/>
    <text x="100" y="196" fill="#fff" font-family="Inter, Segoe UI" font-size="16">Clear</text>
    <rect x="200" y="170" width="140" height="40" rx="10" fill="#F59E0B"/>
    <text x="225" y="196" fill="#fff" font-family="Inter, Segoe UI" font-size="16">Slowmode</text>
    <rect x="350" y="170" width="120" height="40" rx="10" fill="#6B7280"/>
    <text x="380" y="196" fill="#fff" font-family="Inter, Segoe UI" font-size="16">Mute</text>
    <rect x="480" y="170" width="120" height="40" rx="10" fill="#10B981"/>
    <text x="505" y="196" fill="#fff" font-family="Inter, Segoe UI" font-size="16">Unlock</text>
  </g>
</svg>
